<svg xmlns="http://www.w3.org/2000/svg" viewBox="0 0 256 256" role="img" aria-labelledby="title">
  <title id="title">Candidato vetorial do favicon Gestação Informada, não aprovado</title>
  <rect x="10" y="10" width="236" height="236" rx="54" fill="#faf8f5"/>
  <g transform="translate(32 30) scale(.8)">
    <g fill="none" stroke="#0f5b63" stroke-width="8" stroke-linecap="round" stroke-linejoin="round">
      <path d="M42 62C28 39 54 23 78 37c17 10 25 20 42 20s25-10 42-20c24-14 50 2 36 25-14 23-42 20-55 42-9 15-8 40-23 61-15-21-14-46-23-61-13-22-41-19-55-42Z"/>
      <path d="M77 83c-17 2-28 14-29 29 15 3 28-3 34-16M163 83c17 2 28 14 29 29-15 3-28-3-34-16"/>
      <path d="M89 91c1 31 8 54 31 80M151 91c-1 31-8 54-31 80"/>
      <path d="M81 36c15-13 29-17 39-7 10-10 24-6 39 7"/>
    </g>
    <path fill="#d98275" d="M120 130s-31-18-31-42c0-18 22-25 31-9 9-16 31-9 31 9 0 24-31 42-31 42Z"/>
  </g>
</svg>
